<?xml version="1.0" encoding="UTF-8"?>
<svg id="Layer_1" xmlns="http://www.w3.org/2000/svg" version="1.1" viewBox="0 0 56 56">
  <!-- Generator: Adobe Illustrator 29.4.0, SVG Export Plug-In . SVG Version: 2.1.0 Build 152)  -->
  <defs>
    <style>
      .st0 {
        stroke-miterlimit: 10;
      }

      .st0, .st1 {
        fill: none;
        stroke: #000;
        stroke-width: .5px;
      }

      .st1 {
        stroke-linecap: round;
        stroke-linejoin: round;
      }
    </style>
  </defs>
  <path d="M52,1.03c1.63,0,2.96,1.33,2.96,2.96v48c0,1.63-1.33,2.96-2.96,2.96H4c-1.63,0-2.96-1.33-2.96-2.96V4c0-1.64,1.32-2.97,2.96-2.97h48M52,0H4C1.79,0,0,1.79,0,4v48C0,54.21,1.79,56,4,56h48c2.21,0,4-1.79,4-4V4C56,1.79,54.21,0,52,0h0Z"/>
  <rect class="st0" x="6.2" y="6.2" width="43.6" height="43.6" rx="2" ry="2"/>
  <line class="st1" x1="2.59" y1="2.7" x2="5.81" y2="5.92"/>
  <line class="st1" x1="53.4" y1="53.29" x2="50.18" y2="50.07"/>
</svg>