<?xml version="1.0" encoding="UTF-8"?>
<svg id="Layer_1" xmlns="http://www.w3.org/2000/svg" version="1.1" viewBox="0 0 56 25">
  <!-- Generator: Adobe Illustrator 29.4.0, SVG Export Plug-In . SVG Version: 2.1.0 Build 152)  -->
  <defs>
    <style>
      .st0 {
        fill: none;
        stroke: #000;
        stroke-linecap: round;
        stroke-linejoin: round;
        stroke-width: .5px;
      }
    </style>
  </defs>
  <path d="M54,1c.55,0,1,.45,1,1v21c0,.55-.45,1-1,1H2c-.55,0-1-.45-1-1V2c0-.55.45-1,1-1h52M54,0H2C.9,0,0,.9,0,2v21c0,1.1.9,2,2,2h52c1.1,0,2-.9,2-2V2c0-1.1-.9-2-2-2h0Z"/>
  <rect class="st0" x="5.61" y="3" width="44.78" height="19" rx="2" ry="2"/>
  <line class="st0" x1="5.16" y1="3.26" x2="1.89" y2="1.87"/>
  <line class="st0" x1="50.84" y1="21.74" x2="54.11" y2="23.13"/>
</svg>