<?xml version="1.0" encoding="UTF-8"?>
<svg id="Layer_1" xmlns="http://www.w3.org/2000/svg" version="1.1" viewBox="0 0 35 7">
  <!-- Generator: Adobe Illustrator 29.4.0, SVG Export Plug-In . SVG Version: 2.1.0 Build 152)  -->
  <defs>
    <style>
      .st0 {
        fill: none;
        stroke: #000;
        stroke-linecap: round;
        stroke-linejoin: round;
      }
    </style>
  </defs>
  <path class="st0" d="M34.12,3.41c-.94.67-2.22.46-3.24-.04s-1.92-1.27-2.97-1.72-2.37-.51-3.2.3c-.5.49-.75,1.23-1.26,1.71-.86.8-2.21.63-3.22.05s-1.79-1.49-2.74-2.17-2.17-1.13-3.22-.65c-.62.29-1.25.62-1.7,1.17s-.67,1.35-.38,2c.39.88,1.63,1.08,2.34.47s.81-1.81.32-2.63-1.45-1.25-2.36-1.2-1.78.51-2.47,1.15c-.8.73-1.39,1.87-1.32,2.93.03.54.68.8,1.12.48.95-.68,1.65-1.74,1.41-2.88-.17-.81-.82-1.45-1.57-1.7s-1.57-.14-2.3.17c-1.58.69-3.35,2.9-3.16,3.86.46.91,2.12-.23,2.69-.95s.71-1.86.13-2.55c-.46-.54-1.21-.67-1.9-.65-1.19.02-2.42.4-3.28,1.28s-1.24,2.32-.72,3.45c.59,1.3,2.34,1.28,3.69,1.1.45-.06.9-.19,1.28-.45s.67-.69.71-1.16c.07-.69-.41-1.34-1-1.66s-1.72-.59-2.38-.65"/>
</svg>