<?xml version="1.0" encoding="UTF-8"?>
<svg id="Layer_1" xmlns="http://www.w3.org/2000/svg" version="1.1" viewBox="0 0 35 7">
  <!-- Generator: Adobe Illustrator 29.4.0, SVG Export Plug-In . SVG Version: 2.1.0 Build 152)  -->
  <defs>
    <style>
      .st0 {
        stroke: #000;
        stroke-linecap: round;
        stroke-linejoin: round;
      }
    </style>
  </defs>
  <path class="st0" d="M.88,6.47V.53s3.05,2.9,0,5.94Z"/>
  <path class="st0" d="M4.57,6.47c-.34-.34,0-5.94,0-5.94,0,0,2.71,3.24,0,5.94Z"/>
  <path class="st0" d="M8.26,6.47c-.68-.67,0-5.94,0-5.94,0,0,2.37,3.58,0,5.94Z"/>
  <path class="st0" d="M11.96,6.47c-1.02-1.01,0-5.94,0-5.94,0,0,2.03,3.92,0,5.94Z"/>
  <path class="st0" d="M15.65,6.47c-1.35-1.35,0-5.94,0-5.94,0,0,1.69,4.25,0,5.94Z"/>
  <path class="st0" d="M19.35,6.47c-1.69-1.69,0-5.94,0-5.94,0,0,1.35,4.59,0,5.94Z"/>
  <path class="st0" d="M23.04,6.47c-2.03-2.02,0-5.94,0-5.94,0,0,1.02,4.93,0,5.94Z"/>
  <path class="st0" d="M26.74,6.47c-2.37-2.36,0-5.94,0-5.94,0,0,.68,5.27,0,5.94Z"/>
  <path class="st0" d="M30.43,6.47c-2.71-2.7,0-5.94,0-5.94,0,0,.34,5.6,0,5.94Z"/>
  <path class="st0" d="M34.12,6.47V.53s-3.05,2.9,0,5.94Z"/>
</svg>