<?xml version="1.0" encoding="UTF-8"?>
<svg id="Layer_1" xmlns="http://www.w3.org/2000/svg" version="1.1" viewBox="0 0 35 7">
  <!-- Generator: Adobe Illustrator 29.4.0, SVG Export Plug-In . SVG Version: 2.1.0 Build 152)  -->
  <defs>
    <style>
      .st0 {
        fill: none;
        stroke: #000;
        stroke-linecap: round;
        stroke-linejoin: round;
      }
    </style>
  </defs>
  <path class="st0" d="M.88,6.47h7.45c.94,0,2.23-1.1,2.88-1.66.94-.8,1.69-1.78,2.2-2.86.16-.34.3-.69.55-.98s.66-.49,1.06-.41c.85.17.87,1.34,1.57,1.82.43.29,1.02.26,1.55.16s1.06-.24,1.58-.13c.6.13,1.06.59,1.38,1.08s.53,1.03.87,1.51c.63.89,1.09,1.48,3.12,1.48.51,0,.96,0,1.49,0,.72,0,1.45,0,2.17,0h5.38"/>
</svg>