<?xml version="1.0" encoding="UTF-8"?>
<svg id="Layer_1" xmlns="http://www.w3.org/2000/svg" version="1.1" viewBox="0 0 35 35">
  <!-- Generator: Adobe Illustrator 29.4.0, SVG Export Plug-In . SVG Version: 2.1.0 Build 152)  -->
  <circle cx="17.5" cy="17.5" r="8.18"/>
  <path d="M17.5,1c9.1,0,16.5,7.4,16.5,16.5s-7.4,16.5-16.5,16.5S1,26.6,1,17.5,8.4,1,17.5,1M17.5,0C7.84,0,0,7.84,0,17.5s7.84,17.5,17.5,17.5,17.5-7.84,17.5-17.5S27.16,0,17.5,0h0Z"/>
  <path d="M17.5,3c8,0,14.5,6.5,14.5,14.5s-6.5,14.5-14.5,14.5S3,25.5,3,17.5,9.5,3,17.5,3M17.5,2.5c-8.28,0-15,6.72-15,15s6.72,15,15,15,15-6.72,15-15S25.78,2.5,17.5,2.5h0Z"/>
</svg>