<?xml version="1.0" encoding="UTF-8"?>
<svg id="Layer_1" xmlns="http://www.w3.org/2000/svg" version="1.1" viewBox="0 0 48 48">
  <!-- Generator: Adobe Illustrator 29.4.0, SVG Export Plug-In . SVG Version: 2.1.0 Build 152)  -->
  <path d="M46.48,20.57c-1.34-1.22-1.85-3.11-1.3-4.84.83-2.6-.76-5.36-3.43-5.94-1.77-.39-3.16-1.77-3.54-3.54-.58-2.67-3.34-4.26-5.94-3.43-1.73.55-3.62.04-4.84-1.3-1.84-2.02-5.02-2.02-6.86,0-1.22,1.34-3.11,1.85-4.84,1.3-2.6-.83-5.36.76-5.94,3.43-.39,1.77-1.77,3.16-3.54,3.54-2.67.58-4.26,3.34-3.43,5.94.55,1.73.04,3.62-1.3,4.84-2.02,1.84-2.02,5.02,0,6.86,1.34,1.22,1.85,3.11,1.3,4.84-.83,2.6.76,5.36,3.43,5.94,1.77.39,3.16,1.77,3.54,3.54.58,2.67,3.34,4.26,5.94,3.43h0c1.73-.55,3.62-.04,4.84,1.3,1.84,2.02,5.02,2.02,6.86,0,1.22-1.34,3.11-1.85,4.84-1.3h0c2.6.83,5.36-.76,5.94-3.43.39-1.77,1.77-3.16,3.54-3.54,2.67-.58,4.26-3.34,3.43-5.94-.55-1.73-.04-3.62,1.3-4.84,2.02-1.84,2.02-5.02,0-6.86ZM25.14,15.7c0,.53-.43.96-.96.96h-.35c-.53,0-.96-.43-.96-.96V5.21c0-.53.43-.96.96-.96h.35c.53,0,.96.43.96.96v10.49Z"/>
</svg>