<?xml version="1.0" encoding="UTF-8"?>
<svg id="Layer_1" xmlns="http://www.w3.org/2000/svg" version="1.1" viewBox="0 0 60 60">
  <!-- Generator: Adobe Illustrator 29.4.0, SVG Export Plug-In . SVG Version: 2.1.0 Build 152)  -->
  <circle cx="30" cy="1.71" r=".99"/>
  <circle cx="25.09" cy="2.14" r=".96"/>
  <circle cx="20.33" cy="3.42" r=".93"/>
  <circle cx="15.86" cy="5.5" r=".9"/>
  <circle cx="11.82" cy="8.33" r=".87"/>
  <circle cx="8.33" cy="11.82" r=".84"/>
  <circle cx="51.67" cy="48.18" r="1.41"/>
  <circle cx="5.5" cy="15.86" r=".81"/>
  <circle cx="54.5" cy="44.14" r="1.38"/>
  <circle cx="3.42" cy="20.33" r=".78"/>
  <circle cx="2.14" cy="25.09" r=".75"/>
  <circle cx="1.71" cy="30" r=".72"/>
  <circle cx="2.14" cy="34.91" r=".69"/>
  <circle cx="56.58" cy="39.67" r="1.35"/>
  <circle cx="57.86" cy="34.91" r="1.32"/>
  <circle cx="58.29" cy="30" r="1.29"/>
  <circle cx="57.86" cy="25.09" r="1.26"/>
  <circle cx="3.42" cy="39.67" r=".66"/>
  <circle cx="56.58" cy="20.33" r="1.23"/>
  <circle cx="5.5" cy="44.14" r=".63"/>
  <circle cx="54.5" cy="15.86" r="1.2"/>
  <circle cx="8.33" cy="48.18" r=".6"/>
  <circle cx="51.67" cy="11.82" r="1.17"/>
  <circle cx="48.18" cy="8.33" r="1.14"/>
  <circle cx="44.14" cy="5.5" r="1.08"/>
  <circle cx="39.67" cy="3.42" r="1.05"/>
  <circle cx="34.91" cy="2.14" r="1.02"/>
</svg>