<?xml version="1.0" encoding="UTF-8"?>
<svg id="Layer_1" xmlns="http://www.w3.org/2000/svg" version="1.1" viewBox="0 0 36 31">
  <!-- Generator: Adobe Illustrator 29.4.0, SVG Export Plug-In . SVG Version: 2.1.0 Build 152)  -->
  <defs>
    <style>
      .st0 {
        fill: #fff;
      }
    </style>
  </defs>
  <path class="st0" d="M31.35,5.45s-.11.15-.15.21c-.25.3-.58.59-.84.88-.81.89-1.73,1.64-2.57,2.53-.52.55-1.12,1.21-1.71,1.71-.53.45-.89,1.03-1.46,1.5-.26.21-.7.65-.9.9-.34.43-.8.74-1.19,1.15-.21.22-.45.5-.65.73-.14.15-.31.25-.44.4-.07.09-.07.12.04.19.26.17.28.18.48.4.24.26.6.48.77.77.07.12.06.16.21.25.59.37.99,1.05,1.53,1.53.2.18.39.41.61.61.91.84,1.78,1.83,2.72,2.72.46.44.95.85,1.4,1.32.21.22.46.46.65.69.4.48.89.84,1.34,1.3.56.58,1.18,1.21,1.73,1.8.21.23.57.41.73.65.28.43.68.66,1.04,1.04.22.23.6.73.86.9.04.03.15.05.19.08.03.02.21.2.21.21,0,.02,0,.05,0,.08,0,.02.04.02.04.04,0,.05,0,.18,0,.23,0,.01-.03.02-.04.04,0,.02,0,.06,0,.08,0,.02-.03.02-.04.04,0,.01,0,.03,0,.04-.02.03-.19.2-.21.21,0,0-.03,0-.04,0-.02,0-.02.04-.04.04-.06.01-.27,0-.35,0-.05,0-.22-.07-.27-.08-.72-.11-1.55,0-2.26-.04-1.02-.05-2.03.1-3.03.04-.26-.02-.49-.03-.77,0-.35.04-.82-.03-1.19-.04-1.04-.03-2.07.03-3.07,0-.79-.02-1.55.04-2.3,0-.35-.02-.67.02-1,0-.51-.04-1.01.07-1.5.04s-1,0-1.5-.04c-.34-.02-.66.08-1,.04-.26-.03-.48.04-.73,0s-.8.07-.92.04c-.61-.14-1.89-.03-2.61-.04-.48,0-1.02-.07-1.53-.04-.27.02-.49.08-.77.04-.47-.07-1.02.03-1.53,0s-1.16.08-1.65-.04c-.07-.02-.58.05-.77.04-.89-.06-1.9.05-2.84,0-.15,0-.32-.05-.5-.04-.8.05-1.71-.07-2.53.04-.08,0-.27.07-.35.08-.07,0-.25.01-.31,0-.01,0-.02-.03-.04-.04-.01,0-.03,0-.04,0-.03-.02-.2-.19-.21-.21,0,0,0-.03,0-.04,0-.02-.03-.02-.04-.04,0-.02,0-.05,0-.08,0-.02-.04-.02-.04-.04,0-.05,0-.22,0-.27,0-.01.03-.02.04-.04,0-.02,0-.05,0-.08,0-.01.18-.19.21-.21.32-.21.49-.43.77-.69.22-.21.5-.41.73-.61s.24-.41.54-.61c.38-.26.47-.43.75-.75.29-.34.67-.52.92-.88.34-.5,1.11-1.16,1.59-1.55.21-.18.37-.49.65-.73.43-.36.76-.88,1.23-1.23.4-.3.72-.75,1.11-1.11.24-.22.43-.5.69-.69.39-.29.65-.71,1.04-1.07.42-.4,1.05-.9,1.4-1.32.48-.57,1.08-1.05,1.61-1.61.24-.25.44-.53.71-.75.07-.06.59-.52.59-.56,0-.02-.26-.26-.31-.31-.75-.82-1.54-1.61-2.36-2.36-.34-.31-.74-.78-1.05-1.13-.18-.21-.43-.3-.61-.54-.11-.14-.07-.16-.25-.29-.36-.25-.51-.47-.79-.79-.4-.47-1.18-1.04-1.5-1.53-.04-.06-.51-.42-.65-.58-.19-.21-.43-.42-.61-.65-.21-.26-.45-.39-.69-.65-.66-.72-1.31-1.4-2.01-2.05-.23-.21-.54-.45-.75-.71-.57-.72-1.38-1.4-2.09-2.05-.16-.15-.29-.31-.4-.48-.06-.1-.34-.14-.42-.27,0,0,0-.03,0-.04-.01-.02-.07-.1-.08-.12C0,.93,0,.73,0,.67c0-.01.07-.05.04-.12.07-.06.09-.16.17-.21,0,0,.03,0,.04,0,.02-.01.1-.07.12-.08.05,0,.22,0,.27,0,.01,0,.02.03.04.04.36.09.93.03,1.34.04.87.02,2.03.15,2.88,0,.54-.1,1.3.06,1.92.04,1.16-.04,2.34.02,3.49-.08.1,0,.25,0,.35,0,1.18.1,2.38.03,3.57.08.62.02,1.21-.08,1.8-.04.34.02.65-.03.96,0,1.01.08,2.02-.06,3.03.04.27.03.57-.06.88-.04.2.01.26.01.46,0,.4-.03.71.05,1.11,0,.65-.08,1.61,0,2.3.04.51.02,1.03-.09,1.53-.04.26.03.63.03.92.04,1.25.05,2.48-.11,3.72-.04.22.01.25.04.5,0,.39-.07.63.07,1,.04.34-.03.7-.02,1.04-.04.56-.03,1.24.07,1.76-.04.01,0,.02-.04.04-.04.06,0,.29-.01.35,0,.01,0,.02.03.04.04.03.01.1.03.12.04.11.07.13.23.21.33-.01.09.02.22,0,.31,0,.01-.03.02-.04.04,0,.01,0,.03,0,.04-.02.03-.18.19-.21.21-.04.03-.15.05-.19.08-.44.29-.86.89-1.27,1.27-.32.3-.59.64-.92.92-.45.39-.72.84-1.23,1.19-.2.14-.34.43-.58.61-.04.03-.2.11-.21.12h0ZM34.61,1.11H1.31c-.02.07.03.08.06.12.11.14.29.3.42.42.6.57,1.25,1.13,1.78,1.75.24.29.47.5.75.75.62.55,1.16,1.15,1.71,1.75.34.37.73.62,1.04,1,.18.23.64.68.86.86.28.22.55.52.81.77.46.43.85.88,1.25,1.32.29.32.64.49.88.84.13.18.45.4.65.61,1.12,1.19,2.36,2.31,3.41,3.49.03.03.16.17.17.17.05.01.07-.03.1-.06.37-.32.65-.65.96-1,0,0,0-.03,0-.04.37-.44.88-.83,1.27-1.27.01-.04-.06-.11-.1-.13-.42-.31-.77-.72-1.15-1.07-.19-.18-.38-.46-.54-.58-.32-.23-.59-.54-.88-.81-.23-.21-.32-.46-.54-.65-.87-.77-1.64-1.64-2.49-2.42-.47-.43-.96-.95-1.4-1.44-.12-.13-.31-.38-.48-.48-.06-.04-.17-.04-.23-.08-.02-.01-.21-.2-.21-.21,0-.02,0-.05,0-.08,0-.02-.04-.02-.04-.04,0-.05,0-.18,0-.23,0-.01.03-.02.04-.04.01-.04.01-.11.04-.15.02-.03.06-.05.08-.08s-.03-.07.06-.06c.09-.12.28-.14.42-.12.19.03.23.14.54.12.76-.07,1.5.03,2.26,0,.52-.02,1.14-.02,1.65-.08.28-.03.55.1.88.08,1.09-.08,2.27.01,3.34-.04.31-.01.61.03.88,0,.62-.07,1.27.07,1.88.04.3-.01.73,0,1-.04.4-.05.72.02,1.11.04.53.03,1.08-.09,1.57,0,.16.03.59-.1.77-.12.07,0,.25-.01.31,0,.01,0,.09.06.12.08,0,0,.03,0,.04,0,.09.06.14.15.17.25,0,.02.03.02.04.04,0,.03,0,.08,0,.12,0,.03.06.06.04.15,0,.01-.03.02-.04.04,0,.02,0,.06,0,.08,0,.02-.03.02-.04.04,0,.01,0,.03,0,.04-.04.07-.19.18-.25.21-.23.11-.4.32-.59.52-.91.95-1.88,1.92-2.86,2.86-.32.31-.75.68-.98,1.02-.14.22-.46.38-.65.61-.21.26-.46.4-.65.65-.45.56-1.13,1.03-1.53,1.57-.14.18-.42.27-.58.5-.13.19-.13.22-.33.36-.36.27-.75.68-1.05,1.02-.75.82-1.5,1.62-2.32,2.36-.67.61-1.29,1.33-1.96,1.92-.39.34-.6.72-1,1.04-.21.17-.45.42-.65.61-.36.34-.66.65-.98,1.02-.26.3-.53.47-.77.77s-.62.51-.88.84c-.11.14-.22.36-.4.48-.55.37-.94.93-1.42,1.38-.24.23-.4.46-.65.69-.48.45-1.06.89-1.44,1.4-.3.41-.72.66-1.04,1.04-.22.26-.48.58-.79.75-.09.05-.05.03-.1.1-.33.47-.81.84-1.25,1.21-.05.04-.11.1-.13.15.57.03,1.18-.04,1.75,0,.39.03.69-.04,1.07,0,.68.07,1.58.09,2.26,0,.38-.05.71.08,1.11.04.06,0,.14-.05.27-.04.54.07,1.12.01,1.65.04.54.03,1.11-.1,1.57.04.04.01.5-.07.58-.08.51-.03,1.1,0,1.61,0,.89.02,2.21.16,3.07,0,.15-.03.63.06.88.04.27-.02.57-.02.84-.04.46-.03.9.06,1.38.04.34-.01.71-.02,1.04-.04.45-.03.94.04,1.34,0,.48-.05.99.06,1.5.04.82-.03,1.69-.01,2.49-.04,1.18-.03,2.39.05,3.53,0,.6-.03,1.18.07,1.8.04.17,0,.67-.1.81-.08.43.08,1.08.07,1.5.04s.87.02,1.29,0c-.02-.06-.08-.09-.12-.13-.36-.47-.75-.75-1.17-1.13-.2-.18-.26-.4-.46-.54-.29-.2-.51-.5-.75-.75-.56-.58-1.16-1.1-1.69-1.69-.37-.4-.85-.73-1.19-1.19-.15-.21-.36-.32-.54-.54-.35-.43-.74-.67-1.07-1.04-.78-.86-1.74-1.65-2.46-2.49-.09-.11-.22-.23-.33-.33-.6-.57-1.27-1.13-1.78-1.78-.3-.39-.64-.54-.92-.88-.34-.41-.73-.78-1.13-1.09-.18-.14-.19-.32-.4-.06-.24.29-.54.52-.77.81-.25.31-.52.52-.77.84-.08.1-.24.17-.33.25-.04.04-.15.13-.17.17,0,0,0,.03,0,.04,0,.02-.04.03-.04.04,0,.02.24.25.29.29.23.22.47.42.67.67.15.18.13.16.33.29.17.11.32.35.44.48.55.58,1.17,1.08,1.65,1.69.29.37.69.59,1,.92.53.56,1.07,1.15,1.63,1.67.27.25.5.52.77.73.35.28.53.76.96.96.02.01.11.01.15.04.09.05.14.16.17.25,0,.02.04.02.04.04,0,.04,0,.26,0,.31,0,.01-.06.09-.08.12,0,0,0,.03,0,.04-.02.03-.15.16-.17.17,0,0-.03,0-.04,0-.02,0-.02.03-.04.04-.03,0-.08,0-.12,0-.01,0-.04.06-.12.04-.02,0-.02-.04-.04-.04-.06-.01-.11-.03-.15-.04-.25-.06-.5-.02-.77-.04-.23-.01-.35-.01-.58,0-.44.02-.9-.03-1.3-.04-.9-.02-1.8.1-2.69,0-.28-.03-.66.07-1,.04-.27-.03-.57.01-.88,0-.81-.04-1.65.02-2.46-.04-.39-.03-.84.1-1.19.04-.23-.04-.41-.02-.61,0-.56.04-1.12-.08-1.65,0-.3.04-.68-.03-1-.04-.53-.02-1.23-.05-1.73.08-.02,0-.02.04-.04.04-.12.02-.29,0-.38-.08-.12-.02-.17-.18-.21-.29,0-.02-.04-.02-.04-.04-.02-.08.01-.21,0-.31.02-.06.09-.11.12-.15,0-.02,0-.05,0-.06s.04,0,.06,0c.03-.01.05-.06.08-.08.68-.38,1.26-1.09,1.78-1.67.39-.42.84-.79,1.23-1.23.46-.51,1-1.08,1.52-1.52.19-.16.28-.26.44-.44.39-.45.86-.88,1.29-1.29.3-.28.45-.54.81-.77.21-.13.28-.39.5-.58.41-.35.75-.7,1.15-1.07.25-.23.43-.5.69-.73.24-.21.4-.45.65-.69.31-.29.63-.65.96-.88.29-.21.58-.62.82-.86.47-.48.94-.96,1.44-1.36.08-.06.09-.12.13-.17.23-.32.56-.55.81-.84s.54-.42.81-.73.49-.64.82-.94c1.06-.97,2.12-2.1,3.18-3.11.81-.76,1.53-1.72,2.34-2.38.27-.22.43-.47.69-.69.39-.32.75-.73,1.11-1.07.38-.36.67-.76,1.04-1.07.23-.2.52-.48.73-.73.02-.02.09-.08.06-.12h0ZM25.21,4.83s-.13,0-.17,0c-.15-.02-.28-.05-.46-.04-.53.04-1.17.08-1.69-.04-.11-.03-.48.1-.69.08-.5-.05-.97.02-1.5,0-.67-.03-1.35-.03-1.99,0-.3.02-.61-.03-.88-.04-.8-.02-1.64,0-2.42.04-.33.02-.68-.07-.92-.04-.43.06-1.1-.01-1.57,0-.31,0-.73.1-1.04,0-.14.03-1.05-.04-1.09,0-.03.03.04.09.06.12.37.45.84.85,1.17,1.29.08.11.27.2.36.29.47.41.84.91,1.3,1.3s.95.89,1.32,1.32c.43.5.95.92,1.38,1.38.43.46.91.92,1.36,1.32.04.04.21.23.23.23.01,0,.09-.09.12-.12.27-.21.47-.44.73-.65.56-.45.99-1.03,1.5-1.5.29-.26.4-.5.73-.73.2-.14.27-.36.5-.54.32-.25.54-.55.84-.81.55-.47,1.06-1.15,1.61-1.61.32-.26.48-.55.81-.81.14-.11.23-.2.35-.35.02-.02.09-.08.06-.12h0ZM25.21,26.2s-.04-.09-.06-.12c-.16-.19-.22-.29-.42-.46-.25-.21-.38-.43-.61-.61-.77-.61-1.42-1.58-2.19-2.15-.31-.23-.44-.45-.67-.71-.4-.45-.89-.82-1.3-1.27-.2-.22-.36-.45-.59-.63-.42-.34-.77-.79-1.19-1.15-.04-.03-.18-.19-.19-.19-.01,0-.12.13-.15.15-.3.25-.46.56-.77.77-.28.19-.44.45-.73.69-.44.36-1,.99-1.36,1.44-.16.2-.42.29-.61.5-.46.5-.95.98-1.42,1.5-.17.18-.23.22-.4.36-.6.51-1.05,1.26-1.65,1.73-.05.04-.09.03-.1.04,0,0-.02.07.02.08.32.04.74,0,1.07,0,.51.01,1.07.01,1.57.04s.93-.06,1.38-.04c.49.03,1.01.02,1.5.04.78.04,1.55-.08,2.34-.04.31.02.65.02.96.04.34.02.65-.06.96-.04.93.08,1.85-.02,2.8,0,.32,0,.68.05,1.04.04.19,0,.43-.06.65-.04.05,0,.11.06.13.04h0Z"/>
</svg>