<?xml version="1.0" encoding="UTF-8"?>
<svg id="Layer_1" xmlns="http://www.w3.org/2000/svg" version="1.1" viewBox="0 0 33 42">
  <!-- Generator: Adobe Illustrator 29.4.0, SVG Export Plug-In . SVG Version: 2.1.0 Build 152)  -->
  <path d="M2.21.43h-.68c-.42,0-.78.15-1.08.45-.3.3-.45.66-.45,1.08v39.61h2.21c.42,0,.78-.15,1.08-.45.3-.3.45-.66.45-1.08v-13.44h-1.36v13.44c0,.11-.06.17-.17.17h-.85v-16.68c.06,0,.11.03.17.03h.68c.42,0,.78-.15,1.08-.45.3-.3.45-.66.45-1.08V1.96c0-.42-.15-.78-.45-1.08s-.66-.45-1.08-.45ZM2.38,22.03c0,.11-.06.17-.17.17h-.68c-.11,0-.17-.06-.17-.17V1.96c0-.11.06-.17.17-.17h.68c.11,0,.17.06.17.17v20.07Z"/>
  <path d="M7.06.43h-.68c-.42,0-.78.15-1.08.45-.3.3-.45.66-.45,1.08v4.76c0,.52.18.96.54,1.33s.81.54,1.33.54c.14,0,.26.05.36.15s.15.22.15.36v9.37c-.06,0-.11-.03-.17-.03h-.68c-.06,0-.11.03-.17.03v-8.18h-1.36v29.75c0,.42.15.78.45,1.08.3.3.66.45,1.08.45h.68c.42,0,.78-.15,1.08-.45.3-.3.45-.66.45-1.08V9.1c0-.52-.18-.96-.54-1.33s-.81-.54-1.33-.54c-.14,0-.26-.05-.36-.15s-.15-.22-.15-.36V1.96c0-.11.06-.17.17-.17h.68c.11,0,.17.06.17.17v2.55h1.36V1.96c0-.42-.15-.78-.45-1.08s-.66-.45-1.08-.45ZM6.38,19.8h.68c.11,0,.17.06.17.17v2.06c0,.11-.06.17-.17.17h-.68c-.11,0-.17-.06-.17-.17v-2.06c0-.11.06-.17.17-.17ZM7.06,40.21h-.68c-.11,0-.17-.06-.17-.17v-16.51c.06,0,.11.03.17.03h.68c.06,0,.11-.03.17-.03v16.51c0,.11-.06.17-.17.17Z"/>
  <path d="M11.91.43h-.68c-.42,0-.78.15-1.08.45-.3.3-.45.66-.45,1.08v22.77c0,.52.18.96.54,1.33s.81.54,1.33.54c.14,0,.26.05.36.15s.15.22.15.36v12.93c0,.11-.06.17-.17.17h-.68c-.11,0-.17-.06-.17-.17v-11.74h-1.36v11.74c0,.42.15.78.45,1.08s.66.45,1.08.45h.68c.42,0,.78-.15,1.08-.45.3-.3.45-.66.45-1.08v-12.93c0-.52-.18-.96-.54-1.33-.36-.36-.81-.54-1.33-.54-.14,0-.26-.05-.36-.15s-.15-.22-.15-.36v-1.2c.06,0,.11.03.17.03h.68c.42,0,.78-.15,1.08-.45.17-.17.28-.38.36-.59h.09V7.23h-1.36v11.24c-.06,0-.11-.03-.17-.03h-.68c-.06,0-.11.03-.17.03V1.96c0-.11.06-.17.17-.17h.68c.11,0,.17.06.17.17v2.55h1.36V1.96c0-.42-.15-.78-.45-1.08s-.66-.45-1.08-.45ZM11.23,19.8h.68c.11,0,.17.06.17.17v2.06c0,.11-.06.17-.17.17h-.68c-.11,0-.17-.06-.17-.17v-2.06c0-.11.06-.17.17-.17Z"/>
  <path d="M21.6,18.44h-.68c-.06,0-.11.03-.17.03v-9.88h-1.36v13.44c0,.11-.06.17-.17.17h-.85V.43h-1.36v18.06c-.09-.01-.16-.05-.26-.05h-.68c-.06,0-.11.03-.17.03V.43h-1.36v39.62c0,.42.15.78.45,1.08s.66.45,1.08.45h.68c.42,0,.78-.15,1.08-.45.3-.3.45-.66.45-1.08v-14.8h-1.36v14.8c0,.11-.06.17-.17.17h-.68c-.11,0-.17-.06-.17-.17v-20.07c0-.11.06-.17.17-.17h.68c.11,0,.17.06.17.17v2.55h.09v1.04h2.21c.06,0,.11-.03.17-.03v16.51c0,.42.15.78.45,1.08.3.3.66.45,1.08.45h.68c.42,0,.78-.15,1.08-.45.3-.3.45-.66.45-1.08v-20.07c0-.42-.15-.78-.45-1.08-.3-.3-.66-.45-1.08-.45ZM21.77,40.04c0,.11-.06.17-.17.17h-.68c-.11,0-.17-.06-.17-.17v-20.07c0-.11.06-.17.17-.17h.68c.11,0,.17.06.17.17v20.07Z"/>
  <path d="M26.62,18.44h-2.38v23.13h1.36v-5.44h1.02c.42,0,.78-.15,1.08-.45.3-.3.45-.66.45-1.08v-14.63c0-.42-.15-.78-.45-1.08s-.66-.45-1.08-.45ZM26.79,34.6c0,.11-.06.17-.17.17h-1.02v-14.97h1.02c.11,0,.17.06.17.17v14.63Z"/>
  <polygon points="33 19.8 33 18.44 29.26 18.44 29.26 41.57 33 41.57 33 40.21 30.62 40.21 30.62 26.6 33 26.6 33 25.24 30.62 25.24 30.62 19.8 33 19.8"/>
</svg>