<?xml version="1.0" encoding="UTF-8"?>
<svg id="Layer_1" xmlns="http://www.w3.org/2000/svg" version="1.1" viewBox="0 0 30 12">
  <!-- Generator: Adobe Illustrator 29.4.0, SVG Export Plug-In . SVG Version: 2.1.0 Build 152)  -->
  <defs>
    <style>
      .st0, .st1 {
        fill: none;
        stroke: #000;
        stroke-linecap: round;
        stroke-linejoin: round;
      }

      .st2 {
        fill: #fff;
      }

      .st1 {
        stroke-width: .5px;
      }
    </style>
  </defs>
  <rect class="st2" x=".5" y=".5" width="29" height="11" rx="1.19" ry="1.19"/>
  <path d="M28.31,1c.38,0,.69.31.69.69v8.62c0,.38-.31.69-.69.69H1.69c-.38,0-.69-.31-.69-.69V1.69c0-.38.31-.69.69-.69h26.62M28.31,0H1.69C.76,0,0,.76,0,1.69v8.62c0,.93.76,1.69,1.69,1.69h26.62c.93,0,1.69-.76,1.69-1.69V1.69c0-.93-.76-1.69-1.69-1.69h0Z"/>
  <line class="st0" x1="15" y1="2.89" x2="15" y2="9.11"/>
  <g>
    <path class="st1" d="M9.76.62c.93,0,1.69,1.02,1.69,2.27v6.21c0,1.26-.76,2.27-1.69,2.27"/>
    <path class="st1" d="M20.24.62c-.93,0-1.69,1.02-1.69,2.27v6.21c0,1.26.76,2.27,1.69,2.27"/>
  </g>
</svg>