<?xml version="1.0" encoding="UTF-8"?>
<svg id="Layer_1" xmlns="http://www.w3.org/2000/svg" version="1.1" viewBox="0 0 27 40">
  <!-- Generator: Adobe Illustrator 29.4.0, SVG Export Plug-In . SVG Version: 2.1.0 Build 152)  -->
  <defs>
    <style>
      .st0 {
        fill: none;
        stroke: #000;
        stroke-linecap: round;
        stroke-linejoin: round;
        stroke-width: .5px;
      }
    </style>
  </defs>
  <g>
    <path class="st0" d="M17.03,11.09c3.55,1.41,6.06,4.87,6.06,8.91,0,5.29-4.29,9.58-9.58,9.58S3.92,25.29,3.92,20c0-4.05,2.51-7.51,6.06-8.91"/>
    <path d="M13.71,22.88h-.42c-1.82,0-3.3-1.48-3.3-3.3l-1-16.22c0-1.94,2.56-3.33,4.29-3.33h.42c1.73,0,4.3,1.38,4.3,3.3l-1,16.28c0,1.79-1.48,3.27-3.29,3.27ZM13.29,1.04c-1.41,0-3.3,1.14-3.3,2.3l1,16.22c0,1.3,1.03,2.33,2.3,2.33h.42c1.27,0,2.3-1.03,2.3-2.3l1-16.28c0-1.13-1.89-2.27-3.3-2.27h-.42Z"/>
  </g>
  <path d="M6.36,20c0,3.95,3.2,7.14,7.14,7.14s7.14-3.2,7.14-7.14c0-2.73-1.53-5.1-3.78-6.3l-.18,2.87c.92.86,1.51,2.07,1.51,3.43,0,2.59-2.1,4.7-4.7,4.7s-4.7-2.1-4.7-4.7c0-1.36.59-2.57,1.51-3.43l-.18-2.87c-2.25,1.2-3.78,3.57-3.78,6.3Z"/>
  <polygon points="0 27.79 13.5 35.59 27 27.79 27 12.21 17.3 6.61 17.24 7.72 26 12.78 26 27.22 13.5 34.43 1 27.22 1 12.78 9.76 7.72 9.7 6.61 0 12.21 0 27.79"/>
</svg>